<svg width="700" height="700" viewBox="0 0 700 700" fill="none" xmlns="http://www.w3.org/2000/svg">
<path d="M332.587 0.0949752C370.896 -2.01316 388.498 29.0873 504.975 284.299L700 700C600.129 689.752 552.17 661.373 480.597 574.865C410.069 484.649 367.91 478.334 294.279 530.326C185.642 645.587 135.882 680.574 66.1692 693.637C25.0589 697.099 10.7208 695.42 0 689.395L104.478 473.061C130.76 430.763 174.986 413.6 309.95 394.587C371.353 363.339 393.095 335.948 409.204 269.452C315.214 240.635 270.658 245.881 205.473 292.782C192.372 293.179 189.249 293.022 191.542 284.299L332.587 0.0949752Z" fill="url(#paint0_linear_98_21)"/>
<defs>
<linearGradient id="paint0_linear_98_21" x1="492.786" y1="265.115" x2="-48.1155" y2="585.306" gradientUnits="userSpaceOnUse">
<stop stop-color="#04B0EE"/>
<stop offset="0.324644" stop-color="#019ADE"/>
<stop offset="1" stop-color="#0466A5"/>
</linearGradient>
</defs>
</svg>
